/* XPM */
static char *_6a441d4842f468df1a65c44c8844c22yjEtlU4MshFcLch6[] = {
/* columns rows colors chars-per-pixel */
"64 64 208 2 ",
"   c #252624",
".  c #282826",
"X  c #2B2B27",
"o  c #27252A",
"O  c #272929",
"+  c #2B2C2C",
"@  c #332E2B",
"#  c #2E302E",
"$  c #32312F",
"%  c #2E2E31",
"&  c #302F31",
"*  c #2E3131",
"=  c #343433",
"-  c #383635",
";  c #373837",
":  c #3B3937",
">  c #363639",
",  c #38363A",
"<  c #36393A",
"1  c #3C3C3C",
"2  c #443836",
"3  c #413E3C",
"4  c #4C3D3C",
"5  c #3E403E",
"6  c #434437",
"7  c #43413E",
"8  c #4C413F",
"9  c #50423F",
"0  c #353B41",
"q  c #3E3E41",
"w  c #413F41",
"e  c #4D3D40",
"r  c #3E4142",
"t  c #3F4648",
"y  c #444443",
"u  c #494644",
"i  c #464946",
"p  c #4B4946",
"a  c #454649",
"s  c #494749",
"d  c #464A4A",
"f  c #4B4C4B",
"g  c #534443",
"h  c #5A4747",
"j  c #524B46",
"k  c #5C474A",
"l  c #524D4B",
"z  c #5B4C4C",
"x  c #4D504E",
"c  c #565249",
"v  c #52524E",
"b  c #5D5C4E",
"n  c #464F50",
"m  c #4C4E50",
"M  c #504E51",
"N  c #5D4F50",
"B  c #4E5252",
"V  c #4F5759",
"C  c #535453",
"Z  c #595554",
"A  c #545956",
"S  c #5A5A55",
"D  c #545659",
"F  c #5A575B",
"G  c #555B5A",
"H  c #5B5C5B",
"J  c #614D4D",
"K  c #64514F",
"L  c #634E52",
"P  c #664E55",
"I  c #655253",
"U  c #695455",
"Y  c #675C57",
"T  c #67545A",
"R  c #6B5559",
"E  c #615C5C",
"W  c #6C5B5C",
"Q  c #725C5D",
"!  c #785E5F",
"~  c #57605E",
"^  c #5B615F",
"/  c #676554",
"(  c #63635D",
")  c #6C645D",
"_  c #65695E",
"`  c #6B695D",
"'  c #76695E",
"]  c #6D715F",
"[  c #5D5E61",
"{  c #615B62",
"}  c #6E5D62",
"|  c #735E62",
" . c #5D6362",
".. c #5B6564",
"X. c #636463",
"o. c #6C6465",
"O. c #646A66",
"+. c #6B6C64",
"@. c #66666C",
"#. c #6E646A",
"$. c #656A6B",
"%. c #6C6C6B",
"&. c #746264",
"*. c #7A6465",
"=. c #726D65",
"-. c #796B65",
";. c #75656A",
":. c #7B666A",
">. c #736C6B",
",. c #7C6A6C",
"<. c #6D7065",
"1. c #6C716C",
"2. c #727265",
"3. c #74746C",
"4. c #7A746C",
"5. c #77796D",
"6. c #7A7A6D",
"7. c #6C6D72",
"8. c #716F71",
"9. c #7D6E72",
"0. c #6C7274",
"q. c #6F7977",
"w. c #747573",
"e. c #7B7473",
"r. c #757974",
"t. c #7B7B74",
"y. c #747579",
"u. c #7E757C",
"i. c #747A7B",
"p. c #7B7C7B",
"a. c #836667",
"s. c #80666A",
"d. c #836B6E",
"f. c #836E72",
"g. c #876F75",
"h. c #837374",
"j. c #8A7475",
"k. c #827B75",
"l. c #887F76",
"z. c #84757A",
"x. c #89767A",
"c. c #847B7B",
"v. c #8A7A7C",
"b. c #917678",
"n. c #937B7D",
"m. c #7D8176",
"M. c #7D817C",
"N. c #848275",
"B. c #83837C",
"V. c #8C837D",
"C. c #858A7E",
"Z. c #8B8B7C",
"A. c #918B7E",
"S. c #757C81",
"D. c #777C87",
"F. c #7B7E83",
"G. c #847C82",
"H. c #8B7D82",
"J. c #807F8C",
"K. c #927E82",
"L. c #7D8383",
"P. c #7B8287",
"I. c #848584",
"U. c #8B8383",
"Y. c #858A83",
"T. c #8B8C85",
"R. c #83858A",
"E. c #8D8689",
"W. c #858B8C",
"Q. c #8C8C8A",
"!. c #928385",
"~. c #9C8385",
"^. c #928B87",
"/. c #93858A",
"(. c #938C8C",
"). c #9A8A8B",
"_. c #8D9184",
"`. c #8D928C",
"'. c #92938D",
"]. c #97988B",
"[. c #878794",
"{. c #8C8C91",
"}. c #938C92",
"|. c #9B8D92",
" X c #8D9394",
".X c #949392",
"XX c #9D9394",
"oX c #969994",
"OX c #9B9B95",
"+X c #93959A",
"@X c #99989B",
"#X c #9B9C9B",
"$X c #A38A8C",
"%X c #A19394",
"&X c #A59797",
"*X c #A19C9C",
"=X c #9DA099",
"-X c #A5A598",
";X c #A2A39D",
":X c #949AA5",
">X c #9B9CA0",
",X c #A59EA3",
"<X c #9DA3A7",
"1X c #A5A2A2",
"2X c #A8A9AA",
"3X c #B2A4A6",
"4X c #ABAFB0",
"5X c #B5B4B3",
/* pixels */
"[ F X.F G C D S D D H O p.T h.4.~.H.R |.6.e.;.H.:.j.U | &.x.!.H.9.,.W h.h.h.n.Q I Q W Q T L R >.&.;.;.( D H H F F C X.X.O.H [ a ",
"m D H F X.F F F D F O f u.z.9.H.#X<XK.&X3X/.Q '.Q f.,.K.G.|.^.Q.}.}.x./.v.!.x.s.} R f.v.(.:.:.z.Q -.-.,.E f %.D F H { @.X.X.y , ",
"C D y > q , 1 y y > O }.h.@X&X2Xz.}.*Xh.|.&XT.H.%X%X,X*.XX|.z.OX}.(.z.c.z.g.f.h.! Q &.j.j.h.| H.U c.W z.W f f 1 - - , y y y 1 , ",
"f M 1 , w a m q 1 - O $X3X$Xv.U.U.f.| f./.h.:.z.k.Y.*.j.z.U.(.c.&.U.z.x.| h.R | K.*.,.:.&.:.R z.h k.W c.&.f v 3 y < , 1 f q , = ",
"i y 5 1 - f f = = = : 4 j 4 j 4 z g z z j j g z g N z g g j g z j g e g g g g 4 g j j 4 4 4 4 4 2 g 4 4 4 F f - + - , f f y = = ",
"f l , & y f = = = - q - , f 1 y y 1 y y 7 ; ; 1 1 p y 1 3 y p f f 1 y 1 u y , 1 f 7 y y y y 7 y 1 y f y y - , , x 3 v f y s - + ",
"C F , t a . + f B._ T.B f f i y f f 3 u 3 v r : r 1 u l p f S v v p y f u 1 : 7 y 7 C f x x f H F D f y y C t.T.( C y F y v - # ",
"B D > a q O y >.U.Y.+.'.f = + O O O + * = + O . O * # * = + + + + = = + O + * * * * = = + + * + + O O = f t.Q.=Xi.X.D H X.D 1 = ",
"y C 1 y r $ _ ^.W.w.3.E Q.D 7 y i B H O.X.l C H v X.C m y 3 f a : y C a Z y 1 y y 7 7 7 5 , 7 , 1 = y x %.I.T.>XL.0.%.O.H D y , ",
"f m $ O + < r.' =X<._ <.3..XC y f D [ X.H D C f D H M y , p y w 1 y C u 1 , 7 y f p y f f ; 1 - $ 1 C ( p.M.].`.Y.B C f > O y , ",
"a * . $ 3 O # C.3.C.5.B._.m.#XC 1 i D D C H m f C M f y x w s M a s r p r y f f Z C v y 1 ; 1 - q y %.B.y.G.J.i.L.@.+ u + . O < ",
"* u o.*.g - < + _ 6.+._ Z.+.+.oXC y 1 n y C f y f D f y y y f D m C D H y f 1 v u 7 y f p y f y f C +.X.R.R.7.F.7., & &.} F H y ",
"d.n.(.n.z f f 1 - r.Q.t.t.M.6.>..XG B D D f i a f n D D C S D H E B G O.G S H ( H n S G B y y E w.G.p.R.Q.Q.y.@.f y x U I &.>.) ",
"Q -.v.W z 1 p y - ; %.e.e.'.w.k.=.oXv : 2 3 N j : 7 7 u y j p u u y y f y r v y y r y 5 , 1 u p.e.+.t.w.e.G.o.y 3 f y *.>.&.&.;.",
"o.b.$XT g y f y 3 = 1 w.{.>.u.#XR..X1Xf , 7 u u u 3 7 l p y y y 1 y y y y 1 y a y y r , < F S ) 3.3.3.+.t.y.1 : u u 7 *.*.j.h.j.",
"j.K.~.n.g 1 f H f - , , #X1X>Xp.4X5XO.#XC 3 : l 1 y y y f a y y y u y y y y y y f 5 , , w .Xk.V.OX'.I.p.X.y 1 u p u 3 &.H I Y ,.",
";.,.;.U z y X.O.C y 3 , q {.W.+X#X.X=X1.;XB 3 3 1 u y y a y f y f f f y y y y y 1 : , S o.=.3.N.) 6.2.c 1 : 3 y u u : U } I.s.W ",
",.u.~.9.z G O.y.O. .D y 5 r M.Y.'.;XT.#XQ.;XF v F ( %.O.X.G  .p.%.G G  .O.^ G B f a ( T.'.3.=.'.'.) u i C ^ y.i.1.w.y | U S.v.*.",
"h.h.z.W j y q C f f f f s , 1 3.B.OXo.].r.I.;XC 1 3 y C u i f x H f f f y 1 1 : 1 j 4.N.*XOXT.T._ ( y u F F p ( X.%.l ! h &.&.W ",
"=.,.|.I.z , n u p S C f B f , - M.`.B.'.T.6.E *XC 3 1 1 3 f u j 1 d y r y y ; , Z p.C.'.+.S t.+.t.y f 1 v C C l i.O.S *.h.U.z.h.",
";.h.(.z.z q y y C v C D C p - <   =.B.B.C.=._ k..XB 3 1 w 4 9 u 1 w < r 1 , 1 y >.k.k.k.=./ _ c y 1 y f H C v H H %.X.x.E.:.,.} ",
">.z.XX9.z - p i v p f y y t r q : . w.o.( ].t.].t.2XZ 4 2 3 1 2 t i t 1 : y C p t.*X4X^.XX` b 5 1 y i p d f y D %.X.v *.n.e.(.I ",
"} ,.z.| z f x x B G  .G  .X.^  .p y   G %.Y.T.'.t.<..XC u f D B C C i f y C %.t.Q.3.Y.t.T._ i f B D A X.D A G S G A C ,.&.!.;.&.",
"&.H.| :.g 5 1 p p p D x B f f D D y <   `.%.@XF.%.v w.#XC , y 5 1 1 y 1 f S 6.3.t.+.A.6._ y w y y f y y y f 3 3 q 3 ; *.R z.| I ",
"Q &.9.| g : y u u p f B D f f C C f y = + ( >XO.p.0.%.%.+XB , 7 , - y 5 w.T.W.-X_.`.6.3.y y i a p y f p f p u u u 7 : :.;.| | | ",
"U | 9.W g 7 f p p v C v f f y f p y y - , - C _ S.S.7.p. .+XB 1 , 1 y D r.W.'.I.OXw.5.y 7 y y D f f f p y u p 7 p 7 : Q ,.;.R J ",
"J P I h g 7 p v v C Z v D C y x v f f 1 1 < @ =.%.0.oXw.y.O..XC y a  .p.y.w.Y.p.Y.1.1 : i C f D G x v f f v u f f 7 3 ,.;.R f.R ",
"U U R R h D F H D d i f G O.H ~ G A ~ f f y 1 1 I.I.I.Y.y.%.y.<XM. .y.0.M.w.0.0.$.y y f O.O.$.X.0.y.0.O.H A f i f B y *.&.,.R J ",
"I -.d.W 4 y p l C n y 1 y r i y i 7 B p r ; - = = C.1.p.R.i.F.i.+.w.L.$.0.r.0...y 1 l X.E H D C D F X.y y f 7 q y 3 1 d.:.f.*.k ",
"k &.f.| Z C F %.O.X.v 1 1 y 1 f y 5 5 1 f S ; - = < R.2X+X>XP.S.y.F.F.L.M.1. .1 1 y s S O.X.D F C f C y 7 3 3 q y y 1 f.&.v.!.Q ",
"I 9.h.Q z u O.H X.l p ; ; ; y r a a p f C y 1 1 = < < W.2X:XD.D.D.R.i.y.p.%.q - , f C H %.O.D H H H ( y 3 1 y a 1 u 7 j.z..X/.! ",
"| h.U.W Y O.i.%.G f r y B D B $.X. .A C S O. .G C r 1 O  XD.:Xy.@. .R.1..Xa q f D D H H $.H G %.y.w.r.O.f G G x G ^ X.j.XX4X5Xv.",
"9.z.:.x.z d V H  .G B B f C a y B f f y y y x f f : 1 % <Xy.7.P.0.7.i.I.4XC 1 y i G f y y y f y y f f y i d f f f y - *.;.).%XH.",
"G.}.v.!.z d G D G B f f x i y 1 n q p p u f ; : y 1 H 3.'..XOX%.I.P.0.w.%.#Xf u 7 v v y 1 1 , f 1 w : l f u s y u y : g.z.@X^.c.",
"z.U.z.9.z i f n B y y i 5 f f y 7 a v f y 1 3 1 1 +.N.Z.` M.w.C.+.p.%.%.t.v Q.D 1 1 B 1 1 y y , 1 y y C f m D f C p = ! ^.|.9.U.",
"&./.U.x.z i B B B y y r y i y i d x H H H f 3 y c B.T.].t.t._.Q.p.+.T.t.+.y.y.oXC 7 y 1 r 1 1 , 1 7 D f F f F C H y - f.z.(..Xh.",
"c.z.z.9.Z D G ..~ B B x ..G B ~ ..$.q.%.H D i X.B.^.(.-XA.k.l.$ + B.t.%.w..XN.X.#XD f f A ~ f f B ~ H %. . .O. .O.A a x.c.XX(.H.",
"*.;.,.o.g y y q y x y r y y f 1 y y 1 y , 1 H t.Q.I.].*Xw.].H r , . +.I.w.R.'.I._ '.D u f y 1 5 y y y y l p p v f C f c.(.$X(.;.",
"R } h.e.g 1 y y i 7 C , f 1 : f 1 q 1 y 1 A B.'.=.Q.'.#Xr.w.r y 1 1 - +.{.;XI.k..X5.oXC y 7 u 7 f d y i 7 p 1 3 1 a 7 x.$XE.^.e.",
"U U Y I 8 , y i 7 y a 7 1 i y q f y - y f t.W.=XW.#XL.%.H y y y y 1 1 + 0.<XoXQ.W.C.+.'.C 1 1 y 7 7 f p y y y r i D y h.e.c.R J ",
"( w.W Y g 1 p l C p u p f 1 5 1 , - y x w. XY.+XR.P.L.1.1 , y f B y y 1 % I.c.Y.I.6.5.+.'.C 1 y y f F O.X.v C H v H y e.B.c.4.U ",
"o.,.=.W 4 a i y x G  .0.D i f 1 - , f %.R.#X3.+.W.L.S.y q d = = 1  .f 1 < - p./ t.t.t.] 3.oXG i 5 1 y G  .i 1 , i H D s.!.p.0.h ",
"e W h.K 9 q f p v C C v f y 7 : 1 f p.{.L.W.[.S.R.q.1 , y = y f r f , 7 - = + ` 3.2.C.B.C.3.OXC p y y f p p u y p 7 : h.c.#.U g ",
"P P V.W g y p p p H f l i y : , m H I.0.7.w.@.y.7.1 1 f y 1 [ p i f 1 1 1 $ = $ 5.6.3.3._.+.1.oXD y p f u 7 u u 7 2 , z.Q.h.W Q ",
"h.I z W 9 7 p u f C l y 3 : 1 H F t.G.R.I.Q.7.@.y , 1 - f f y y B G f y 1 1 , , - w.Q.B.B.M.t.%.#XC 7 7 y 8 7 7 7 7 - ,.,.b.d.J ",
";.,.;.n.h y f C p p l u : 1 f H >.p.t.u..XG.H 5 - 1 y 1 , y y 7 ; p y 1 y ; ; = - > w.R.G.`.}..XB.2XC 7 7 7 u y 7 r , *.h.V.~.z.",
"3.Q R &.8 i B f f x f y 1 C p.Y.T.Q.U.p.t.X.1 + - d G x d A , < r  .G i i  .D i 1 1 1 F.[.}.>Xe.R.W.#XC f f y , i D B -.v.,.j.) ",
"R h.$XW u f y F f p 7 y C u.1X4.'.c.S t.l y 1 , p y y 1 , , q f y 1 y q y f C a f 1 = 1 Q.+X1Xt.*XoX#X1XC 1 u C f f f g.(.U./.;.",
"&.4.! I g 7 y 7 f 8 y l 8.p.Y.].p.2.'.X.y u ; y C i , - , 1 q q 7 y a 5 1 f C a C f 1 - 1 y.i.R.W.`.<.r.2Xl : p f ^ f s.z.v.%Xn.",
"J Q W R g 3 1 1 3 y 6 t.B.t.B.T.^.Y H 1 y y y 1 D 1 1 y - p , , B 1 1 1 y m f F x C y - , = t.Y.'.Y.B.R.t.;Xv 7 y u y d.n.K.v.j.",
"e.j.).-.g - , : 1 =.}.OX*X'.6.3.=.X.y 3 f y y , , , x i i 1 B - 1 1 0 a y l w C f f f f f , ; T.>XY.p.T.+.p.=XC : : 1 ,.(.&X!.&.",
"Y j.x.+.8 = $ - D r.t.T.S c =.+.5.< = = y 1 = = = 1 - = - , r B = < < * + + = - - 1 y i = $ - , t.L.w.Q.^.Z.w.*Xf 1 < x.H.|.*.W ",
"D %.t.&.4 + , y p..X` ) E b ( c 1 : 1 1 5 y i y u u y p p f D G B i B f f y i C D B C y y 1 - < # C.r.5.C.N._ 4.1Xf y v.h.| t.%.",
"C E C M F + M p B.OX4Xe.XXb j 1 : 1 y y 5 1 s s y y 7 y f f C G B D G f y f f f x C f f f 1 y : , $ O.p.p._._ ' ( ;Xy t.>.X.%.= ",
"d f ( Z C - ( t.T.+.T.4.T.( 1 - 1 C r C f f l f d f i : f y f D n D B n f B f i f B y y y 7 3 y , , O y.Y.M.k.+.5.S C %.[ F q y ",
"D D y 1 . O +.w.N._ N.=.b 1 - y y f C u D D  .C f 1 f 7 p 7 G B B a d D B d B G y y i 3 y y 1 i 1 1 q . .X`.B.^ .Xp f D = 1 + = ",
"y f y a $ y H '.T.`.2.r.f f G O.G ....X.O.X.~  .G G G B B B A G O... .~  .G  .~ B G G B ..D G  .G D v y = W.W.H 0.8.%.C 1 5 - O ",
"f F ; r < y a X.C.+.r.1 - 1 1 1 : : i 3 y 1 3 y 7 y y 1 q 1 y , - y , y y = 1 5 y y 1 f y , f 7 y y y ; - - H X.w.%.%.1 1 , = + ",
"F M y D y y 3 y ( H * = 1 - ; y = - - : , r , , ; - 1 - , - = , = y 1 , = , , , < - - - - = = y 7 y 3 ; = . H H %.%.y y , w 1 - ",
"D F C f C f D S ( - u I U o.R U W Y R R W W J U R U J I K I L R R J J I I I J J z J z h k z J J I U R I I H C O.X.s f i q 1 % , ",
"f C a C a a 7 , 1 , y v.E.h.U.9.H.u.&.g.| {.W E.&.,.:.g.:.*.' J R -.&.W W &.R *.Q | L L ,.o.W W Q R &.h.Y f C 1 a w : y 1 , = 1 ",
"C [ y f s y 1 1 1 1 , ;.4Xc.,XQ.e.G.U..Xz.,.P.G.G.!.f.U.d.v./.,.U :.f.:.U.h.h.K.h.*.:.I R U I T J R I '.w.O.f ; , , 1 y q , > & ",
"D a , 1 % = % o o = 1 E @XH.z.v.&X+X1XW.n.k.0.,.h.h.v.^.v.Q./.:.W 9.,.&.v.z.h.K.K.&.Q U W P I } P T &.>.w.F O O . = & + , 1 1 1 ",
", = , = o o o .   + + , }.| h.:.| G.t. XS.h.L ;.&.H./.x.|.%X1Xv.| ,.h.R v.~.).~.,.U R L I k { W I | a.k Z - + o O % + + = = 1 = "
};
